<?xml version="1.0" encoding="UTF-8"?>
<svg id="Calque_2" xmlns="http://www.w3.org/2000/svg" version="1.1" viewBox="0 0 56.7 56.7">
  <!-- Generator: Adobe Illustrator 30.1.0, SVG Export Plug-In . SVG Version: 2.1.1 Build 136)  -->
  <defs>
    <style>
      .st0 {
        fill: #030404;
      }

      .st1 {
        fill: #020202;
      }

      .st2 {
        fill: none;
        stroke: #16b1a1;
        stroke-miterlimit: 10;
        stroke-width: 2px;
      }

      .st3 {
        fill: #060707;
      }

      .st4 {
        fill: #020303;
      }

      .st5 {
        fill: #000100;
      }
    </style>
  </defs>
  <g id="Calque_1-2">
    <circle class="st2" cx="28.3" cy="28.3" r="27.3"/>
    <path d="M25.8,25.7c0-1.4-.9-2.4-2.1-2.5s-2.5.8-2.5,2.2v4.4c-.7,0-1.3,0-2.1,0v-4.6c0-2.4,2.2-4.2,4.5-4.2s4.4,2,4.4,4.5v4.3c-.7,0-1.4,0-2.1,0v-4.1h0Z"/>
    <path d="M13.8,35.5c-.8.2-1.4,0-2.3,0l5.5-14.5h2.2s-5.5,14.4-5.5,14.4Z"/>
    <path d="M43,29.8c-.7.1-1.4,0-2.3,0l3.3-8.7c.7,0,1.4,0,2.3,0l-3.3,8.7h0Z"/>
    <path class="st5" d="M14.1,25c.4,1.1-.2,2.2-1.2,2.6l-2.5-6.6h2.2s1.5,4,1.5,4Z"/>
    <path class="st5" d="M41.1,25.1c.4,1-.2,2.1-1.2,2.5l-2.5-6.5h2.2s1.5,4,1.5,4h0Z"/>
    <path d="M33.5,21c-2.4-.2-4.4,1.6-4.7,3.8-.3,2.2,1.1,4.4,3.4,4.9,2.6.6,5-1.2,5.4-3.7.4-2.5-1.5-4.8-4.1-5ZM33,27.7c-1.3-.1-2.2-1.2-2.1-2.4,0-1.2,1-2.1,2.2-2.2,1.3,0,2.4,1,2.5,2.2,0,1.3-1.1,2.5-2.5,2.4Z"/>
    <g>
      <path class="st1" d="M28.1,33.1c-.4,0-.2,1.5-.2,2.1,0,0,0,.1,0,.2,0,.2-.1.2-.2.2-.1,0-.3,0-.3-.2v-3.2c0-.2.6-.1.7,0l1.1,2.2c.4-.7.7-1.4,1-2.1,0-.2.7-.3.7,0,.1,1.1,0,2.1,0,3.2,0,.2-.5.2-.5,0-.1-.8,0-1.5,0-2.4l-1,2c-.4.8-1.3-2-1.3-2h0Z"/>
      <path class="st1" d="M42.7,35.2c-.7.6-1.7.5-2.3,0-.2-.1,0-.5.2-.5.6.3,1.7.7,1.7,0,0-.9-1.8-.4-1.8-1.6,0-.4.2-.8.7-.9.5-.2,1.2,0,1.6.2.1,0,0,.5-.2.4-.4-.2-1.1-.5-1.4,0-.4.7,1.3.6,1.7,1.3.2.3.2.8-.2,1h0Z"/>
      <path class="st0" d="M38.6,32.2c0-.2.5-.2.5,0,0,.7,0,1.3,0,2s-.6,1.4-1.5,1.4-1.4-.5-1.4-1.3c0-.7,0-1.4,0-2.1,0-.1.5-.1.5,0,.2,1.1-.3,2.7.8,2.9.4,0,1.1,0,1.1-.6v-2.2h0Z"/>
      <path class="st4" d="M21.8,32.9c-.1.2-1.2-.9-2,.2-.3.5-.3,1.1,0,1.6.8,1,1.8-.1,2,.2,0,0,.2.2,0,.3-.7.7-1.8.7-2.5,0-.6-.7-.6-1.8,0-2.5s1.8-.8,2.5,0c0,0-.1.3-.2.3h0Z"/>
      <path class="st1" d="M28.1,33.1c-.1,0-.1.1-.1.3v2c-.1,0-.1-.1-.1-.3v-2.2c.2,0,.2,0,.3.1h0Z"/>
      <path class="st3" d="M34.2,32.1c-.6,0-1.2,0-1.8,0,0,1.1,0,2.3,0,3.4,0,.1.4.1.5,0,.2-.2,0-1,.2-1,.4,0,1.8.2,2-1.1h0c0-.6-.2-1.2-.9-1.3ZM34.6,33.4h0c0,.7-1,.6-1.5.5,0-.5,0-.9,0-1.3.4,0,.9,0,1.3,0,.3.1.3.5.3.7Z"/>
      <path class="st4" d="M24.9,32.1c0-.2-.6,0-.7,0l-1.4,3.4c.7.3.6-.5.9-.7.4-.2,1.4-.2,1.7,0h0c.2.2.2.5.3.6.2,0,.3.1.6,0l-1.5-3.4ZM25.1,34.2c-.5.2-.8.1-1.2,0,.2-.5.3-1,.6-1.4.3.4.4.8.6,1.4h0Z"/>
    </g>
  </g>
</svg>